<?xml version="1.0" encoding="UTF-8"?>
<svg id="Ebene_1" xmlns="http://www.w3.org/2000/svg" version="1.1" viewBox="0 0 35 30">
  <!-- Generator: Adobe Illustrator 29.7.1, SVG Export Plug-In . SVG Version: 2.1.1 Build 8)  -->
  <defs>
    <style>
      .st0 {
        fill: #999;
      }
    </style>
  </defs>
  <path d="M9.3,18.3l1.5,4.7,24.1,6.9-25.7-11.6Z"/>
  <path d="M17.7,10.5c.3,1.2,0,1.9-1.9,1.7l19.1,17.7c.2,0,.3,0,.1-.3L17.7,10.5Z"/>
  <path class="st0" d="M17.1,2s-.7.6,0,1.5c.5.6,1.3.2,1.3.2,0,0,.7-.4.2-1.3-.7-1.1-1.5-.4-1.5-.4ZM35,30L8,17.9S-.8,12.5,0,10.3c.9-2.1,8.8,2.1,9.6,2.3.8.2,1.3-.3,1.3-.7,0-.5-1.2-2-.6-2.7.6-.6,2.6.6,2.6.6l1.6,1.1,20.3,19Z"/>
  <path class="st0" d="M35.2,29.9L17.3,10.1s-3.2-3.7-3.1-4.7,4.4,2.3,4.4,2.3c0,0,.5.5.9.4.5,0,0-.8,0-.8,0,0-.7-1.7-.2-2,.5-.3,1.7,1,1.7,1,0,0,.3.3.6.2.3,0,.2-.8.2-.8,0,0-2.3-5.2-1.3-5.6,1.5-.6,3.6,3.7,4.4,5.1.2.4,10.3,24.8,10.3,24.8ZM7.3,5.4s-.9.6.1,1.8c.9,1.1,1.8.5,1.8.5,0,0,.9-.5,0-1.5-1.1-1.3-1.9-.8-1.9-.8Z"/>
</svg>