<?xml version="1.0" encoding="UTF-8"?>
<svg id="Ebene_1" xmlns="http://www.w3.org/2000/svg" version="1.1" viewBox="0 0 64 64">
  <!-- Generator: Adobe Illustrator 29.7.1, SVG Export Plug-In . SVG Version: 2.1.1 Build 8)  -->
  <defs>
    <style>
      .st0 {
        stroke: #fff;
        stroke-linecap: round;
        stroke-linejoin: round;
      }

      .st0, .st1 {
        fill: #fff;
      }

      .st2 {
        fill: #050704;
      }
    </style>
  </defs>
  <path class="st2" d="M26.7,63.6c-12.8-2.3-22.6-11.5-25.9-24.4-.9-3.6-.9-10.9,0-14.5C3.5,13.9,10.8,5.6,21,1.9c15.6-5.7,33.1,1.5,40.1,16.7,3.8,8.1,3.8,18.7,0,26.8-4.1,8.8-12.2,15.5-21.5,17.7-3.9.9-9.4,1.2-13,.5h.1ZM35.7,47.8c3.6-5.7,3.6-5.6,2.2-8.5-.9-1.9-4.8-5.9-5.8-5.9-1.9,0-6.9,6.3-6.9,8.7s.6,1.9,1.4,3.1,2.3,3.5,3.3,5.1,2,2.9,2.2,2.9,1.8-2.4,3.7-5.3h-.1ZM21.3,39.7c.4-1.3,1.3-3.3,2.1-4.5,1.5-2.3,5.2-6.2,7.3-7.6l1.3-.9,1.7,1.2c4.1,3,8.1,8.4,9.1,12.1.2.9.6,1.7.7,1.8.3.2,9.4-4.4,10.1-5.1.4-.3-1.7-4.8-3.3-7.2-.6-.9-2.1-2.8-3.2-4.2q-2.1-2.6-2.3-5.2l-.2-2.6h-2.9c0-.1-2.9-.2-2.9-.2l-3.3-2.2c-1.8-1.2-3.5-2.2-3.7-2.2s-1.8,1-3.5,2.2l-3.1,2.2-3.1.2-3.1.2-.2,2.8q-.2,2.8-1.9,4.8c-3.4,4-7,10.2-6.6,11.4.2.4,9.2,5.3,10,5.3s.5-1,.9-2.3h0Z"/>
  <g>
    <path class="st0" d="M31.1,51.8c-1.3-1.7-4.7-7-5.3-8.2-.3-.6-.5-1.3-.5-1.6,0-.7,1.1-3,2.2-4.4,1.1-1.5,3.1-3.5,3.9-3.8.6-.3.7-.3,1.2,0,1.5.7,4.4,4,5.5,6.1.8,1.6.8,2.5.2,3.8-.9,1.7-5.9,9.4-6.1,9.4s-.5-.5-.9-1.2h-.2Z"/>
    <path class="st1" d="M31.8,13c-.6.3-1.2.7-1.8,1.1-1.6,1-3.1,2.1-4.6,3.2h-.4c-1.9.1-3.9.2-5.8.3v.5c0,1.3-.1,2.6-.3,3.9,0,.6-.2,1.2-.6,1.7-.6.9-1.4,1.7-2.1,2.5-1.4,1.7-2.6,3.5-3.7,5.4-.7,1.2-1.3,2.4-1.8,3.6-.1.4-.2.7-.2,1.1s.3.3.5.5c1.3.9,2.7,1.6,4.1,2.4,1.6.8,3.1,1.6,4.7,2.4.2,0,.4.2.6.2s.2-.2.2-.3c.5-1.2.8-2.4,1.3-3.6.6-1.4,1.3-2.8,2.3-4,1.3-1.6,2.7-3.2,4.2-4.6.8-.8,1.7-1.5,2.6-2.1.3-.2.7-.5,1-.7,1.2.9,2.4,1.7,3.5,2.7,2,1.8,3.7,3.9,5.2,6.1.7,1.2,1.4,2.4,1.9,3.7.3.8.4,1.6.8,2.4,0,0,0,.2.2.2.9-.3,1.7-.7,2.5-1.1,2.1-1,4.3-2.1,6.4-3.3.4-.2.8-.4,1.1-.7,0-.5-.2-1-.4-1.5-.6-1.6-1.4-3.1-2.3-4.6-.8-1.4-1.8-2.7-2.8-4-.7-1-1.6-1.9-2.3-2.9-.4-.6-.8-1.2-.9-1.9,0-.9-.2-1.9-.2-2.8s0-1,0-1.5h-.4c-1.8,0-3.5-.1-5.3-.2-1.7-1.1-3.3-2.3-5-3.3-.6-.4-1.2-.8-1.9-1.1h-.3v.3Z"/>
  </g>
</svg>