<?xml version="1.0" encoding="UTF-8" standalone="no"?>
<!-- Generator: Adobe Illustrator 21.0.0, SVG Export Plug-In . SVG Version: 6.00 Build 0)  -->

<svg
   version="1.1"
   id="Layer_1"
   x="0px"
   y="0px"
   viewBox="0 0 67.199996 67.2"
   xml:space="preserve"
   sodipodi:docname="graphdb.svg"
   width="67.199997"
   height="67.199997"
   inkscape:version="1.1.2 (b8e25be8, 2022-02-05)"
   xmlns:inkscape="http://www.inkscape.org/namespaces/inkscape"
   xmlns:sodipodi="http://sodipodi.sourceforge.net/DTD/sodipodi-0.dtd"
   xmlns="http://www.w3.org/2000/svg"
   xmlns:svg="http://www.w3.org/2000/svg"
   xmlns:rdf="http://www.w3.org/1999/02/22-rdf-syntax-ns#"
   xmlns:cc="http://creativecommons.org/ns#"
   xmlns:dc="http://purl.org/dc/elements/1.1/"><defs
   id="defs859">
	
	
	
	
	
	
</defs><sodipodi:namedview
   id="namedview857"
   pagecolor="#ffffff"
   bordercolor="#666666"
   borderopacity="1.0"
   inkscape:pageshadow="2"
   inkscape:pageopacity="0.0"
   inkscape:pagecheckerboard="0"
   showgrid="false"
   inkscape:zoom="4.5544965"
   inkscape:cx="39.411601"
   inkscape:cy="33.702957"
   inkscape:window-width="1496"
   inkscape:window-height="905"
   inkscape:window-x="0"
   inkscape:window-y="34"
   inkscape:window-maximized="0"
   inkscape:current-layer="Layer_1" />
<style
   type="text/css"
   id="style824">
	@import &quot;css/default-theme-vars.css&quot;;
	.st0{fill:var(--logo-color, #F04E23);}
	.st1{fill:#FFFFFF;}
</style>
<title
   id="title826">graphdb-logo</title>
<g
   id="g1041"
   transform="translate(10.758598,2.8543221)"><path
     class="st0"
     d="m 39.3,27.8 c 4.3,0.9 7,5 6.1,9.3 -0.9,4.3 -5,7 -9.3,6.1 -4.2,-0.9 -7,-5 -6.2,-9.2 0.8,-4.2 4.9,-7 9.1,-6.2 0.2,-0.1 0.2,-0.1 0.3,0"
     id="path828" /><path
     class="st0"
     d="m 23,40.3 c 2.5,0.6 4.1,3 3.7,5.5 -0.5,2.5 -3,4.1 -5.5,3.6 -2.5,-0.5 -4.1,-2.9 -3.7,-5.5 0.6,-2.5 3,-4.1 5.5,-3.6"
     id="path830" /><path
     class="st0"
     d="m 29.4,18 c 1.7,0.4 2.8,2 2.5,3.7 -0.4,1.7 -2,2.8 -3.7,2.5 -1.7,-0.4 -2.8,-2 -2.5,-3.7 0,0 0,0 0,0 0.3,-1.7 2,-2.8 3.7,-2.5 0,0 0,0 0,0"
     id="path832" /><path
     class="st0"
     d="m 23.9,1.6 c 3.2,2.5 3.8,7 1.3,10.3 -2.5,3.3 -7,3.8 -10.3,1.3 -3.2,-2.5 -3.8,-7 -1.3,-10.2 2.4,-3.2 7,-3.8 10.3,-1.4 -0.1,0 -0.1,0 0,0"
     id="path834" /><path
     class="st0"
     d="m 12.3,49.4 c 2.7,2.8 2.6,7.2 -0.2,9.8 -2.8,2.7 -7.2,2.6 -9.8,-0.2 -2.7,-2.8 -2.6,-7.2 0.2,-9.8 0,0 0,0 0,0 2.8,-2.7 7.1,-2.6 9.8,0.2"
     id="path836" /></g>
<metadata
   id="metadata941"><rdf:RDF><cc:Work
       rdf:about=""><dc:title>graphdb-logo</dc:title></cc:Work></rdf:RDF></metadata></svg>
