<?xml version="1.0" encoding="UTF-8" standalone="no"?>
<svg
   fill="none"
   viewBox="0 0 96 96"
   id="aws-neptune"
   height="24"
   width="24"
   version="1.1"
   sodipodi:docname="neptune.svg"
   inkscape:version="1.1.2 (b8e25be8, 2022-02-05)"
   xmlns:inkscape="http://www.inkscape.org/namespaces/inkscape"
   xmlns:sodipodi="http://sodipodi.sourceforge.net/DTD/sodipodi-0.dtd"
   xmlns="http://www.w3.org/2000/svg"
   xmlns:svg="http://www.w3.org/2000/svg">
  <sodipodi:namedview
     id="namedview836"
     pagecolor="#ffffff"
     bordercolor="#666666"
     borderopacity="1.0"
     inkscape:pageshadow="2"
     inkscape:pageopacity="0.0"
     inkscape:pagecheckerboard="0"
     showgrid="false"
     inkscape:zoom="18.414248"
     inkscape:cx="10.888308"
     inkscape:cy="6.3809286"
     inkscape:window-width="1496"
     inkscape:window-height="905"
     inkscape:window-x="0"
     inkscape:window-y="34"
     inkscape:window-maximized="1"
     inkscape:current-layer="aws-neptune" />
  <path
     fill="#ffffff"
     d="M77.3749 69.1499c-.6486 0-1.175-.5276-1.175-1.175 0-.6474.5264-1.175 1.175-1.175.6486 0 1.175.5276 1.175 1.175 0 .6474-.5264 1.175-1.175 1.175Zm-11.1625 9.4c-1.6203 0-2.9375-1.3183-2.9375-2.9375 0-1.6191 1.3172-2.9375 2.9375-2.9375s2.9375 1.3184 2.9375 2.9375c0 1.6192-1.3172 2.9375-2.9375 2.9375Zm-5.2875-20.5625c0-2.2677 1.8447-4.1125 4.1125-4.1125 2.2677 0 4.1125 1.8448 4.1125 4.1125 0 2.2678-1.8448 4.1125-4.1125 4.1125-2.2678 0-4.1125-1.8447-4.1125-4.1125Zm-7.05-9.9875c-.6486 0-1.175-.5276-1.175-1.175 0-.6474.5264-1.175 1.175-1.175.6486 0 1.175.5276 1.175 1.175 0 .6474-.5264 1.175-1.175 1.175Zm-3.525 16.45c-1.296 0-2.35-1.054-2.35-2.35s1.054-2.35 2.35-2.35 2.35 1.054 2.35 2.35-1.054 2.35-2.35 2.35Zm24.675-24.675c1.296 0 2.35 1.054 2.35 2.35s-1.054 2.35-2.35 2.35-2.35-1.054-2.35-2.35 1.054-2.35 2.35-2.35Zm2.35 24.675c-1.9434 0-3.525 1.5815-3.525 3.525 0 .524.1222 1.0164.3278 1.4641l-4.1183 2.5708c-.772-.8248-1.7978-1.397-2.9575-1.5944l-.2797-6.2216c2.6967-.7767 4.6777-3.263 4.6777-6.2064 0-1.7296-.6874-3.2994-1.7977-4.4603l4.0948-6.8855c.3937.1081.8014.1833 1.2279.1833 2.5921 0 4.7-2.1079 4.7-4.7 0-2.592-2.1079-4.7-4.7-4.7-2.592 0-4.7 2.108-4.7 4.7 0 1.3184.5487 2.5063 1.4253 3.3605l-3.9621 6.6634c-.8354-.3959-1.7661-.6239-2.7507-.6239-1.3536 0-2.6108.4207-3.6495 1.1351l-4.3017-4.3981c.1974-.4394.3137-.9235.3137-1.437 0-1.9434-1.5815-3.525-3.525-3.525-1.9434 0-3.525 1.5816-3.525 3.525 0 1.9435 1.5816 3.525 3.525 3.525.5711 0 1.1033-.1492 1.5827-.3924l4.2653 4.3616c-.7226 1.0434-1.148 2.3065-1.148 3.6683 0 .2397.0153.4759.0411.7085l-4.3052.8954c-.8354-1.3125-2.2924-2.1914-3.9609-2.1914-2.592 0-4.7 2.108-4.7 4.7 0 2.5921 2.108 4.7 4.7 4.7 2.5921 0 4.7-2.1079 4.7-4.7 0-.0881-.0211-.1704-.0247-.2561l4.277-.8907c.9964 1.9176 2.9211 3.2747 5.1771 3.4686l.2761 6.1323c-2.2043.6381-3.8305 2.652-3.8305 5.0584 0 2.9152 2.3723 5.2875 5.2875 5.2875 2.9152 0 5.2875-2.3723 5.2875-5.2875 0-.5487-.1081-1.0692-.2644-1.5674l4.6378-2.8941c.4559.2174.9623.349 1.5016.349 1.9435 0 3.525-1.5816 3.525-3.525 0-1.9435-1.5815-3.525-3.525-3.525Zm-39.3625-45.825c11.4257 0 19.3875 3.7154 19.3875 7.05 0 3.3347-7.9618 7.05-19.3875 7.05-11.4257 0-19.3875-3.7153-19.3875-7.05 0-3.3346 7.9618-7.05 19.3875-7.05Zm19.3875 52.8985c0 3.2336-7.9618 6.8385-19.3875 6.8385-11.4257 0-19.3875-3.6049-19.3875-6.8385v-9.682c3.4745 2.9634 10.501 4.9044 18.9962 4.9044 2.0011 0 4.0232-.1116 6.0066-.3313l-.2585-2.3359c-1.8988.2103-3.8328.3173-5.7481.3173-11.3634 0-18.9962-3.5662-18.9962-6.8949V45.9871c3.4745 2.9634 10.501 4.9033 18.9962 4.9033 4.0714 0 8.0241-.4512 11.4304-1.3066l-.5722-2.2783c-3.2218.8084-6.976 1.2349-10.8582 1.2349-11.3634 0-18.9962-3.5649-18.9962-6.8949V30.0483c3.5215 3.035 10.6972 5.0266 19.3875 5.0266 8.6903 0 15.866-1.9916 19.3875-5.0266v13.2516h2.35v-17.625c0-5.3592-9.3448-9.4-21.7375-9.4-12.3927 0-21.7375 4.0408-21.7375 9.4v45.8485c0 5.2381 9.3448 9.1885 21.7375 9.1885 12.3927 0 21.7375-3.9504 21.7375-9.1885v-5.8985h-2.35v5.8985Z"
     id="path826"
     style="fill:#000000" />
  <defs
     id="defs833">
    <linearGradient
       id="a"
       x1="1"
       x2="9401"
       y1="9401"
       y2="1"
       gradientUnits="userSpaceOnUse">
      <stop
         stop-color="#2e27ad"
         id="stop828" />
      <stop
         offset="1"
         stop-color="#527fff"
         id="stop830" />
    </linearGradient>
  </defs>
</svg>
