<?xml version="1.0" encoding="UTF-8" standalone="no"?>
<svg
   width="512"
   height="512"
   viewBox="0 0 512 512"
   fill="none"
   version="1.1"
   id="svg826"
   sodipodi:docname="qlever.svg"
   inkscape:version="1.1.2 (b8e25be8, 2022-02-05)"
   xmlns:inkscape="http://www.inkscape.org/namespaces/inkscape"
   xmlns:sodipodi="http://sodipodi.sourceforge.net/DTD/sodipodi-0.dtd"
   xmlns="http://www.w3.org/2000/svg"
   xmlns:svg="http://www.w3.org/2000/svg">
  <defs
     id="defs830" />
  <sodipodi:namedview
     id="namedview828"
     pagecolor="#ffffff"
     bordercolor="#666666"
     borderopacity="1.0"
     inkscape:pageshadow="2"
     inkscape:pageopacity="0.0"
     inkscape:pagecheckerboard="0"
     showgrid="false"
     inkscape:zoom="1.4160156"
     inkscape:cx="256"
     inkscape:cy="256"
     inkscape:window-width="1496"
     inkscape:window-height="905"
     inkscape:window-x="0"
     inkscape:window-y="34"
     inkscape:window-maximized="0"
     inkscape:current-layer="svg826" />
  <path
     d="M246.469 450.987C216.045 450.987 187.739 445.681 161.552 435.07C135.365 424.458 112.451 409.678 92.81 390.729C73.5546 371.78 58.3427 349.798 47.1746 324.786C36.3915 299.394 31 272.107 31 242.925C31 213.364 36.3915 186.078 47.1746 161.065C57.9576 136.052 72.9769 114.26 92.2324 95.6899C111.873 76.7407 134.594 62.1499 160.397 51.9173C186.584 41.3058 214.89 36 245.313 36C276.122 36 304.427 41.3058 330.23 51.9173C356.417 62.1499 379.139 76.7407 398.394 95.6899C418.035 114.26 433.247 136.241 444.03 161.633C454.813 186.646 460.204 213.933 460.204 243.494C460.204 272.675 454.813 299.962 444.03 325.354C433.247 350.367 418.035 372.348 398.394 391.297C379.139 409.867 356.61 424.458 330.807 435.07C305.005 445.681 276.892 450.987 246.469 450.987ZM428.433 476L237.804 288.403L290.371 236.672L481 424.269L428.433 476ZM245.313 369.695C269.96 369.695 291.334 364.389 309.434 353.778C327.534 343.166 341.591 328.386 351.603 309.437C362.001 290.109 367.2 267.938 367.2 242.925C367.2 223.976 364.312 206.922 358.535 191.762C352.759 176.224 344.479 162.96 333.696 151.969C322.913 140.6 310.012 132.072 294.992 126.388C280.358 120.324 263.798 117.292 245.313 117.292C221.051 117.292 199.87 122.598 181.77 133.209C163.67 143.442 149.421 158.033 139.023 176.982C129.01 195.552 124.004 217.533 124.004 242.925C124.004 261.874 126.892 279.118 132.669 294.656C138.445 310.195 146.725 323.649 157.508 335.018C168.291 346.009 181 354.536 195.634 360.599C210.653 366.663 227.213 369.695 245.313 369.695Z"
     fill="#3222A6"
     id="path824"
     style="fill:#000000" />
</svg>
