<svg role="img" viewBox="0 0 24 24" xmlns="http://www.w3.org/2000/svg" id="redash" height="24" width="24">
  <path d="M12 0C6.775 0 2.546 4.238 2.546 9.455c0 4.971 3.842 9.05 8.727 9.423V24c3.405 -3.49 5.837 -6.072 7.307 -7.756a9.5 9.5 0 0 0 1.532 -1.93l0.005 -0.006q0.003 -0.007 0.007 -0.014a9.4 9.4 0 0 0 1.33 -4.84C21.455 4.238 17.226 0 12 0m3.821 5.818h1.385c0.337 0.001 0.611 0.25 0.612 0.558v6.157c-0.001 0.308 -0.275 0.557 -0.612 0.558H15.82c-0.337 -0.001 -0.611 -0.25 -0.612 -0.558V6.376c0 -0.307 0.275 -0.557 0.612 -0.558M9.297 7.921h1.386c0.338 0 0.611 0.25 0.613 0.558v4.054c-0.002 0.308 -0.275 0.557 -0.613 0.558H9.297c-0.337 -0.001 -0.61 -0.25 -0.61 -0.558V8.479c0 -0.308 0.273 -0.558 0.61 -0.558m3.222 1.534h1.396c0.337 0 0.61 0.25 0.61 0.558v2.52c0 0.308 -0.273 0.557 -0.61 0.558h-1.396c-0.338 -0.001 -0.612 -0.25 -0.613 -0.558v-2.52c0.001 -0.308 0.275 -0.558 0.613 -0.558M6.067 10.71h1.396c0.337 0.001 0.61 0.25 0.61 0.559v1.264c0 0.308 -0.273 0.557 -0.61 0.558H6.067c-0.338 -0.001 -0.611 -0.25 -0.612 -0.558v-1.264c0 -0.308 0.274 -0.558 0.612 -0.559" fill="#000000" stroke-width="1"></path>
</svg>
