<?xml version="1.0" encoding="UTF-8"?>
<svg id="Ebene_1" xmlns="http://www.w3.org/2000/svg" version="1.1" viewBox="0 0 297.6 297">
  <!-- Generator: Adobe Illustrator 29.7.1, SVG Export Plug-In . SVG Version: 2.1.1 Build 8)  -->
  <defs>
    <style>
      .st0 {
        fill: #fff;
      }
    </style>
  </defs>
  <path d="M155.5,0c112.5,5.8,179.7,130.1,119.6,227-56,90.2-186.6,93.8-247.8,7.2C-40.6,138.2,25.8,6,141.8,0h13.7ZM266.9,119.3c-.8-1.5-3.3-2.1-4.9-2.7-8.9-3.5-27.8-7.8-34-14.2-6.9-7.1-10.6-27-15-36.7s-.5-1.7-1.5-1.8c-5,10.4-7.6,29.4-15.1,37.7-7.4,8.2-27.4,11.4-37.8,16.1-.7.3-1.7.5-1.8,1.5,10,4.8,30.5,7.8,38.4,15.1,7.9,7.3,11.4,29.5,16.2,39.5,1,0,1.1-1,1.5-1.8,4.8-10.5,7.9-30.3,16.1-37.8,8.4-7.5,27.4-10.1,37.7-15.1ZM120.3,116.4c4.3,3.1,5.5,4.5,11,2.7s12.1-5.6,14.1-7.4c3.5-3.1,4.2-6.8,3.6-11.4s-11.4-25.4-13.7-28.7-6.7-6.3-11.3-5.7-18,7.2-19.6,11.3,1,8.9-4.4,7.4-3.4-3.8-9.9-2.4-30.3,14.6-33,16.6c-9.1,6.9-14.4,20.9-18,31.5s-9.7,23.5.4,24.8,6.8-3.9,10-6.4c7.5-6,22.7-15.9,32.3-15.9s6.9,5,9.5,5.7l3.8-1.3,2.1,4.1-.6,1.3c-6.1,3.7-12.5,5.7-15.1,13-3.5,9.9-1,20.8-14.7,23.4-.9-.2-1.9-7.3-6.4-6.4s-13.7,7.9-14.9,8.9c-3.4,2.8.8,7.2,2.5,10.3,8.6,15.1,18.7,29.4,27.3,44.6,1.5,1.9,2.1,2.7,4.6,1.8s14.4-8.5,14.9-9.2c2.9-3.4-3.1-7.4-1.9-9.1,5-2,6-3.9,11.9-3.7,8.4.4,13.7.6,21.9-2.5,2.8-1,12.7-7.6,14.3-6.7s10,17.1,12.7,20,1.3,1.7,3.4,1.4,15.6-9,16.5-9.9.8-.8,1-1.4c-2.5-8.2-8.4-15.8-12.6-23.5-.2-1.1,3.2-3.7,4.1-5,4-6.2,2.6-12.6-.5-18.7s-18.3-31.1-22.5-34.3c-6.3-4.8-14-2.3-15-2.9s-5.2-7.7-5.4-8.4c-.5-1.5.4-2.4,0-3.6-.4-1.7-2.7-2.4-2.6-4.3ZM254.7,70.4c-.7-.6-5.6,4.2-7.2,4.7-3,.9-5.5.6-8-1.4s-3-4.5-5-6.1c1.2,5.4,4.7,10.9-1.2,15l-7.4,3c10.6-1.3,15.8,2.7,14.4,13.7l3-7.4c3.8-5.9,9.8-2.7,15-1.2-9.2-6-11.8-11.4-3.6-20.1ZM184.2,79c-3.3,1.1-4.7,1-7.2-1.4l.4,4.3-4,2.9c1.5,0,3.4-.4,4.7.7s.1,3.8,1.7,4.4c0-4.6,2.8-4.8,6.5-3.6-3.1-2.5-3.5-3.2-2.2-7.2ZM175.6,96.3c-1.3-1.1-2,2.7-3.6,2.2,1,1.4,1.7,1.8.7,3.6h4.3c-1-1.7-.3-2.1.7-3.6-1.8.3-1.9-1.9-2.2-2.2ZM259,97.7c-3.3,1.1-4.7,1-7.2-1.4l.4,4.3-4,2.9c1.5,0,3.4-.4,4.7.7s.1,3.8,1.7,4.4c0-4.7,2.7-4.5,6.5-3.6-.2-1.4-2.2-.9-2.8-2.7s.5-3,.6-4.5ZM187.1,136.5c-1.7-.3-2.1,1.6-3.4,2-4.4,1.3-5.4-1.9-8.1-4.2.7,3,2.4,5.3,0,8.1s-4.7,1-5.8,2.7c3.3-.2,7.8-.3,9,3.6s-.3,4.4,1,5.1c.4-6.9,4.1-8,10.1-5.8-2.2-2.5-6-3.8-4.7-7.9s2.1-2,1.9-3.6ZM258.2,136.5c-1.7,0-2.9-.4-2.9-2.2l-3.6,2.2c1.5,1.7,1.4,2.2.7,4.3,1.7-1.4,2.2-1.5,4.3-.7,0-1.5-.6-3.2,1.4-2.9v-.7ZM253.9,152.3c-4.6,3.8-9,7.6-14.7,2.9s-2.8-4.3-4.7-5.8c1.1,5.4,4.8,10.8-1.3,14.8l-7.3,3.1c6.1-.2,12.2-.9,14.2,6.3l.9,7.4c1.4-10.7,6.7-12.7,16.5-9.3l-6.5-5.4c-4.6-7,3.9-12.8,2.9-14ZM198.6,160.3c-3.1,1.3-2.4-.9-4.3-2.2,0,3.1-3,2.2-1.4,6.5h4.3c-1.4-2.3.4-2.6,1.4-4.3Z"/>
  <path class="st0" d="M120.3,116.4c-.2,1.9,2.2,2.6,2.6,4.3s-.5,2.1,0,3.6,5,8.1,5.4,8.4c1,.6,8.7-1.9,15,2.9s19.4,28.4,22.5,34.3,4.4,12.5.5,18.7-4.3,3.9-4.1,5c4.2,7.7,10,15.3,12.6,23.5-.1.7-.5,1-1,1.4-1,1-15.6,9.8-16.5,9.9-2.1.3-2.1,0-3.4-1.4-2.7-2.8-11.6-19.3-12.7-20s-11.5,5.7-14.3,6.7c-8.2,3.1-13.5,2.9-21.9,2.5s-6.9,1.7-11.9,3.7c-1.2,1.7,4.8,5.7,1.9,9.1s-13.9,8.8-14.9,9.2c-2.5.9-3.1,0-4.6-1.8-8.6-15.1-18.7-29.5-27.3-44.6s-6-7.5-2.5-10.3,14-8.7,14.9-8.9c4.5-.9,5.5,6.2,6.4,6.4,13.7-2.5,11.2-13.5,14.7-23.4,2.6-7.3,8.9-9.2,15.1-13l.6-1.3-2.1-4.1-3.8,1.3c-2.6-.7-2.2-5.7-9.5-5.7s-24.9,9.9-32.3,15.9-5.1,7.1-10,6.4c-10.2-1.3-2.5-18.9-.4-24.8,3.7-10.6,8.9-24.6,18-31.5s30.2-16.1,33-16.6c6.5-1.4,6.1,1.4,9.9,2.4,5.4,1.4,3.1-4,4.4-7.4s15.3-10.8,19.6-11.3,8.7,2.1,11.3,5.7,13.3,25.5,13.7,28.7c.6,4.6,0,8.3-3.6,11.4-2,1.8-11.4,6.5-14.1,7.4-5.5,1.8-6.7.4-11-2.7ZM40.5,148.7c10.6-10.4,31.9-25.5,47.5-21.2,2.2.6,4,3.4,5.9,3.2l19.6-10.7c1.1-1.7-4.3-4.3-.4-7.5s6-3,8.8-2.4,3.7,3.7,6.5,3.3,11.5-5.5,12.4-6.3c1.9-1.7,2.4-3.1,2-5.6s-11.4-25.1-13.2-27.1-3.3-2.6-5.2-2.4-13,6.1-13.5,6.7c-1.3,1.5-.3,5.4-1.8,8.2s-6.9,5.6-9.8,5-2.9-4.3-7.9-3.3c-11.3,7-29.7,11.1-37.1,22.6s-10.6,25.5-13.8,37.6ZM117.3,125.8l-16.8,8.5,1.8,4c4.5-2.2,6.3-3.9,11.8-3.2s9.3,3.6,8-.8-4.2-5.9-4.8-8.5ZM89.4,215.6c.6.4,8.2-5.3,9.9-5.6,3.2-.7,12.3,1.1,17.1.6,9.6-1,29.9-14,38.4-19.8s10.3-7.7,6.9-16.1l-21.2-34.1c-9.1-7.4-13.8,2-19.8,2.5s-6.1-2.7-9.8-2-21.7,12.5-22.5,13.5c-3.2,5.3-3.1,18-6.1,22.5s-11.2,6.2-11.5,7.4l18.7,31.2ZM157.6,196.2c-.6-.4-12,6.6-12.1,7.5l11.8,17.5,10.3-6.1-10-19Z"/>
  <path class="st0" d="M266.9,119.3c-10.4,5-29.4,7.5-37.7,15.1-8.3,7.5-11.4,27.3-16.1,37.8s-.5,1.7-1.5,1.8c-4.8-10-8.3-32.2-16.2-39.5-7.9-7.3-28.4-10.3-38.4-15.1,0-1,1-1.1,1.8-1.5,10.4-4.7,30.4-7.9,37.8-16.1,7.5-8.3,10.1-27.4,15.1-37.7,1,0,1.1,1.1,1.5,1.8,4.5,9.7,8.1,29.6,15,36.7,6.2,6.3,25.1,10.7,34,14.2s4,1.1,4.9,2.7Z"/>
  <path class="st0" d="M253.9,152.3c1.1,1.2-7.4,7-2.9,14l6.5,5.4c-9.9-3.3-15.1-1.4-16.5,9.3l-.9-7.4c-2-7.1-8.1-6.5-14.2-6.3l7.3-3.1c6.2-4,2.4-9.5,1.3-14.8,1.9,1.4,2.8,4.2,4.7,5.8,5.7,4.7,10.1.9,14.7-2.9Z"/>
  <path class="st0" d="M254.7,70.4c-8.2,8.8-5.6,14.1,3.6,20.1-5.2-1.5-11.2-4.7-15,1.2l-3,7.4c1.4-11-3.8-15-14.4-13.7l7.4-3c5.9-4.1,2.3-9.6,1.2-15,2,1.6,3,4.4,5,6.1s4.9,2.4,8,1.4,6.5-5.3,7.2-4.7Z"/>
  <path class="st0" d="M187.1,136.5c.2,1.6-1.4,2.2-1.9,3.6-1.3,4.1,2.5,5.4,4.7,7.9-6-2.2-9.6-1.2-10.1,5.8-1.4-.7-.5-3.4-1-5.1-1.2-3.8-5.7-3.8-9-3.6,1.1-1.7,4.4-1,5.8-2.7,2.3-2.8.7-5.1,0-8.1,2.7,2.3,3.7,5.5,8.1,4.2s1.7-2.3,3.4-2Z"/>
  <path class="st0" d="M259,97.7c-.1,1.5-1.1,2.9-.6,4.5s2.5,1.3,2.8,2.7c-3.8-.9-6.4-1.1-6.5,3.6-1.6-.5,0-3-1.7-4.4s-3.2-.6-4.7-.7l4-2.9-.4-4.3c2.5,2.5,3.9,2.6,7.2,1.4Z"/>
  <path class="st0" d="M184.2,79c-1.4,4-.9,4.7,2.2,7.2-3.7-1.2-6.5-1-6.5,3.6-1.6-.5,0-3-1.7-4.4s-3.2-.6-4.7-.7l4-2.9-.4-4.3c2.5,2.5,3.9,2.6,7.2,1.4Z"/>
  <path class="st0" d="M198.6,160.3c-1,1.7-2.8,2-1.4,4.3h-4.3c-1.5-4.2,1.4-3.3,1.4-6.5,1.9,1.2,1.2,3.5,4.3,2.2Z"/>
  <path class="st0" d="M258.2,136.5v.7c-2-.3-1.5,1.3-1.4,2.9-2.1-.8-2.6-.6-4.3.7.6-2.1.7-2.6-.7-4.3l3.6-2.2c0,1.8,1.2,2.3,2.9,2.2Z"/>
  <path class="st0" d="M175.6,96.3c.3.2.4,2.5,2.2,2.2-1,1.4-1.7,1.8-.7,3.6h-4.3c1-1.7.3-2.1-.7-3.6,1.6.5,2.2-3.3,3.6-2.2Z"/>
  <path d="M89.4,215.6l-18.7-31.2c.3-1.3,10.2-5.5,11.5-7.4,3-4.5,2.9-17.2,6.1-22.5.8-1.1,21-13.3,22.5-13.5,3.7-.7,6.7,2.2,9.8,2,6.1-.4,10.7-9.9,19.8-2.5l21.2,34.1c3.4,8.4-.6,11.8-6.9,16.1s-28.8,18.9-38.4,19.8-13.9-1.3-17.1-.6-9.3,6-9.9,5.6Z"/>
  <path d="M40.5,148.7c3.1-12.1,7.1-27,13.8-37.6s25.8-15.6,37.1-22.6c5.1-1,4.7,2.6,7.9,3.3s8.4-2.4,9.8-5,.5-6.7,1.8-8.2,12.7-6.6,13.5-6.7c1.9-.3,4,1,5.2,2.4,1.8,2,12.7,24.5,13.2,27.1s-.1,3.9-2,5.6-11.5,6.2-12.4,6.3c-2.7.4-4-2.8-6.5-3.3s-6.7.6-8.8,2.4c-4,3.2,1.5,5.8.4,7.5l-19.6,10.7c-1.9.3-3.7-2.5-5.9-3.2-15.6-4.3-36.8,10.8-47.5,21.2Z"/>
  <path d="M157.6,196.2l10,19-10.3,6.1-11.8-17.5c0-.9,11.5-8,12.1-7.5Z"/>
  <path d="M117.3,125.8c.6,2.6,4.2,6.4,4.8,8.5,1.3,4.4-6.3,1-8,.8-5.5-.7-7.3,1.1-11.8,3.2l-1.8-4,16.8-8.5Z"/>
</svg>