<?xml version="1.0" encoding="UTF-8" standalone="no"?>
<svg
   id="a"
   viewBox="0 0 566 566"
   version="1.1"
   sodipodi:docname="tentris.svg"
   inkscape:version="1.1.2 (b8e25be8, 2022-02-05)"
   xmlns:inkscape="http://www.inkscape.org/namespaces/inkscape"
   xmlns:sodipodi="http://sodipodi.sourceforge.net/DTD/sodipodi-0.dtd"
   xmlns="http://www.w3.org/2000/svg"
   xmlns:svg="http://www.w3.org/2000/svg">
  <defs
     id="defs842" />
  <sodipodi:namedview
     id="namedview840"
     pagecolor="#ffffff"
     bordercolor="#666666"
     borderopacity="1.0"
     inkscape:pageshadow="2"
     inkscape:pageopacity="0.0"
     inkscape:pagecheckerboard="0"
     showgrid="false"
     inkscape:zoom="1.2809187"
     inkscape:cx="283"
     inkscape:cy="283"
     inkscape:window-width="1496"
     inkscape:window-height="905"
     inkscape:window-x="0"
     inkscape:window-y="34"
     inkscape:window-maximized="0"
     inkscape:current-layer="a" />
  <circle
     cx="43.555199"
     cy="259.46191"
     r="41.5"
     style="fill:#000000"
     id="circle824" />
  <circle
     cx="432.20239"
     cy="93.274399"
     r="41.5"
     style="fill:#000000"
     id="circle826" />
  <circle
     cx="486.56299"
     cy="410.0882"
     r="41.5"
     style="fill:#000000"
     id="circle828" />
  <path
     d="m 360.2643,506.737 c 8.4566,-4.0076 16.8721,-8.1055 25.0188,-12.6235 26.3334,-13.9513 48.0364,-34.5437 68.2382,-56.286 10.5851,-11.6626 20.0712,-24.3461 28.1086,-37.8944 9.2442,-15.4997 16.6081,-32.0838 22.0189,-49.2833 0,0 -0.519,3.4152 -0.519,3.4152 0.0269,-0.813 0.124,-1.6462 0.2914,-2.4593 0.2316,-1.051 0.3875,-1.4769 0.3362,-1.3264 3.1246,-11.0193 5.5549,-22.3528 7.3249,-33.659 C 529.0867,211.3206 465.4324,103.4168 365.7116,66.2089 219.8688,10.2301 60.5147,113.4518 52.3665,269.5322 c -4.6449,77.381 32.225,154.4276 95.2244,199.562 1.6086,1.2862 3.6336,2.4649 5.2847,3.7154 0.8118,0.6275 1.734,1.1217 2.6351,1.6149 8.7083,4.5614 20.2912,0.8611 24.698,-7.9214 2.8348,-5.6645 17.1094,-35.1868 20.2581,-41.5286 -3e-4,3e-4 21.0713,9.2191 21.0713,9.2191 -2.6889,5.5736 -17.8096,36.5169 -20.2613,41.5789 -9.1155,19.6639 -33.2633,28.9657 -53.2161,20.5048 -2.8297,-1.1314 -5.5357,-2.6553 -8.0476,-4.4007 C 126.1765,482.4339 113.261,471.5939 101.5439,459.6288 52.0759,409.6309 25.314,338.5186 29.3987,268.3149 38.3513,96.7122 213.5662,-16.8487 373.9482,44.734 c 109.846,41.0767 179.5625,159.5155 159.8559,275.4482 -1.9089,12.1419 -4.4644,24.149 -7.8049,35.9771 0,0 -0.1729,0.598 -0.1729,0.598 -0.1036,0.3335 -10e-4,0.0901 0.1754,-0.7787 0.113,-0.6307 0.1558,-1.2815 0.1282,-1.9122 0,0 -0.5191,3.4155 -0.5191,3.4155 -8.8896,28.4165 -22.7967,55.2016 -40.8725,78.8455 -6.0982,7.869 -12.4972,15.6573 -19.798,22.4878 -7.2448,6.7431 -14.8198,12.8141 -22.6096,18.7189 -15.5127,11.9799 -32.9206,22.1018 -51.1395,29.1881 -8.9972,3.5568 -18.1424,6.6066 -27.373,9.3619 0,0 -3.5539,-9.3472 -3.5539,-9.3472 v 0 z"
     style="fill:#000000"
     id="path830" />
  <rect
     x="261.46555"
     y="12.824231"
     width="232.99989"
     height="70"
     transform="rotate(26.0002)"
     style="fill:#666666"
     id="rect832" />
  <rect
     x="261.46558"
     y="175.82425"
     width="232.99989"
     height="70"
     transform="rotate(26.0002)"
     style="fill:#666666"
     id="rect834" />
  <rect
     x="261.46558"
     y="94.324303"
     width="232.99989"
     height="70"
     transform="rotate(26.0002)"
     style="fill:#666666"
     id="rect836" />
</svg>
