<?xml version="1.0" encoding="UTF-8" standalone="no"?>
<svg
   viewBox="0 0 32 32"
   fill="currentColor"
   version="1.1"
   xmlns="http://www.w3.org/2000/svg"
   xmlns:svg="http://www.w3.org/2000/svg">
  <path
     d="M 16 2 L 16 4 C 22.6 4 28 9.4 28 16 C 28 22.6 22.6 28 16 28 L 16 30 C 23.7 30 30 23.7 30 16 C 30 8.3 23.7 2 16 2 z M 11.099609 2.9003906 C 9.5996094 3.5003906 8.2 4.3007813 7 5.3007812 L 8.3007812 6.8007812 C 9.3007812 6.0007813 10.500781 5.3007813 11.800781 4.8007812 L 11.099609 2.9003906 z M 3.9003906 9 C 3.1003906 10.4 2.5007813 11.999609 2.3007812 13.599609 L 4.3007812 13.900391 C 4.4007813 12.500391 4.8996094 11.2 5.5996094 10 L 3.9003906 9 z M 10.001953 10.558594 L 10.001953 11.988281 L 12.554688 11.988281 L 12.228516 12.314453 C 11.681013 12.861956 11.26547 13.4757 10.980469 14.158203 C 10.695468 14.840706 10.552734 15.569293 10.552734 16.341797 C 10.552734 17.121801 10.695468 17.84195 10.980469 18.501953 C 11.272971 19.191956 11.688513 19.8057 12.228516 20.345703 C 12.738519 20.848205 13.349996 21.261482 14.0625 21.583984 C 14.685003 21.861485 15.400934 22 16.210938 22 C 16.990941 22 17.711091 21.861485 18.371094 21.583984 C 19.053597 21.291482 19.665075 20.878206 20.205078 20.345703 C 20.760081 19.7832 21.175624 19.169456 21.453125 18.501953 C 21.730626 17.81945 21.869141 17.099301 21.869141 16.341797 C 21.869141 15.569293 21.730626 14.840706 21.453125 14.158203 C 21.175624 13.5057 20.760081 12.891956 20.205078 12.314453 L 18.867188 13.607422 C 19.25719 13.982424 19.540702 14.397967 19.720703 14.855469 C 19.814453 15.08797 19.884766 15.328672 19.931641 15.576172 C 19.978516 15.823671 20.001953 16.079295 20.001953 16.341797 C 20.001953 16.851799 19.908204 17.337576 19.720703 17.798828 C 19.533202 18.26008 19.251955 18.677732 18.876953 19.052734 C 18.708202 19.217735 18.520703 19.369063 18.314453 19.507812 C 18.108204 19.646562 17.884376 19.772265 17.640625 19.884766 C 17.325623 20.025391 16.97625 20.113281 16.59375 20.148438 C 16.46625 20.160156 16.334219 20.166016 16.199219 20.166016 C 15.659216 20.166016 15.169064 20.072267 14.726562 19.884766 C 14.261561 19.682265 13.844064 19.405236 13.476562 19.052734 C 13.109061 18.677732 12.832032 18.26008 12.644531 17.798828 C 12.457031 17.337576 12.363281 16.851799 12.363281 16.341797 C 12.363281 16.210546 12.369141 16.080625 12.380859 15.953125 C 12.416015 15.570625 12.503906 15.20422 12.644531 14.855469 C 12.869532 14.315466 13.150779 13.899924 13.488281 13.607422 L 13.859375 13.292969 L 13.859375 15.845703 L 15.289062 15.845703 L 15.289062 11.210938 L 14.636719 10.558594 L 10.001953 10.558594 z M 4.1992188 18 L 2.1992188 18.400391 C 2.4992187 20.000391 3.1003906 21.6 3.9003906 23 L 5.5996094 22 C 4.8996094 20.8 4.3992187 19.4 4.1992188 18 z M 8.1992188 25.099609 L 7 26.699219 C 8.2 27.699219 9.5992188 28.599609 11.199219 29.099609 L 11.900391 27.199219 C 10.500391 26.699219 9.2992187 25.999609 8.1992188 25.099609 z " />
</svg>
